<?xml version="1.0" encoding="iso-8859-1"?>
<!-- Generator: Adobe Illustrator 19.0.0, SVG Export Plug-In . SVG Version: 6.00 Build 0)  -->
<svg xmlns="http://www.w3.org/2000/svg" xmlns:xlink="http://www.w3.org/1999/xlink" version="1.1" id="Capa_1" x="0px" y="0px" viewBox="0 0 512 512" style="enable-background:new 0 0 512 512;" xml:space="preserve" width="512px" height="512px">
<g>
	<g>
		<g>
			<path d="M416,458.583c-79.542,0-149.333-59.907-149.333-128.202c0-5.905-4.771-10.683-10.667-10.683     c-5.896,0-10.667,4.778-10.667,10.683c0,79.677,79.75,149.569,170.667,149.569c5.896,0,10.667-4.778,10.667-10.683     S421.896,458.583,416,458.583z" fill="#FFFFFF"/>
			<path d="M96,65.589c1.896,0,3.813-0.501,5.542-1.544c90.25-54.857,207.271-56.85,298.625-6.281     c5.167,2.869,11.646,0.991,14.5-4.184c2.854-5.164,0.979-11.664-4.166-14.512c-97.979-54.21-223.354-52.03-320.042,6.698     c-5.021,3.067-6.625,9.64-3.583,14.679C88.896,63.763,92.396,65.589,96,65.589z" fill="#FFFFFF"/>
			<path d="M489.333,186.321C448.021,111.589,356.438,63.294,256,63.294S63.979,111.589,22.667,186.321     c-2.854,5.164-0.979,11.664,4.167,14.523c5.167,2.848,11.625,0.991,14.5-4.173C78.938,128.626,163.208,84.661,256,84.661     s177.063,43.965,214.666,112.01c1.959,3.526,5.584,5.509,9.334,5.509c1.75,0,3.521-0.428,5.167-1.335     C490.313,197.985,492.188,191.485,489.333,186.321z" fill="#FFFFFF"/>
			<path d="M128,341.064c0-74.284,53.833-128.202,128-128.202c77.75,0,128,46.125,128,117.518c0,5.905,4.771,10.683,10.667,10.683     c5.896,0,10.667-4.778,10.667-10.683c0-83.068-60.021-138.885-149.333-138.885c-85.125,0-149.333,64.299-149.333,149.569     c0,62.432,22.208,114.107,72.042,167.545c2.104,2.254,4.938,3.391,7.792,3.391c2.604,0,5.229-0.949,7.271-2.88     c4.313-4.027,4.542-10.788,0.521-15.097C148.438,444.842,128,397.674,128,341.064z" fill="#FFFFFF"/>
			<path d="M256,127.395c-123.604,0-213.333,85.364-213.333,202.986c0,31.717,10.646,61.785,22.146,89.558     c2.25,5.467,8.542,8.013,13.938,5.78c5.438-2.264,8.021-8.513,5.771-13.959C73.854,386.021,64,358.362,64,330.381     c0-106.939,78.958-181.619,192-181.619c109.458,0,192,82.672,192,192.303c0,29.453-23.917,53.417-53.333,53.417     c-29.417,0-53.333-23.965-53.333-53.417c0-50.319-35.083-85.468-85.333-85.468s-85.333,35.149-85.333,85.468     c0,69.714,39.375,128.358,113.854,169.6c1.646,0.908,3.417,1.335,5.167,1.335c3.75,0,7.396-1.993,9.333-5.519     c2.854-5.164,0.979-11.664-4.167-14.512C226.604,454.18,192,403.412,192,341.064c0-44.278,32.146-64.101,64-64.101     c31.854,0,64,19.823,64,64.101c0,41.232,33.5,74.784,74.667,74.784c41.167,0,74.667-33.553,74.667-74.784     C469.333,219.248,377.625,127.395,256,127.395z" fill="#FFFFFF"/>
		</g>
	</g>
</g>
<g>
</g>
<g>
</g>
<g>
</g>
<g>
</g>
<g>
</g>
<g>
</g>
<g>
</g>
<g>
</g>
<g>
</g>
<g>
</g>
<g>
</g>
<g>
</g>
<g>
</g>
<g>
</g>
<g>
</g>
</svg>
